<svg xmlns="http://www.w3.org/2000/svg" viewBox="0 0 120 84" fill="none" role="img" aria-label="banish mascot — the compactor, pressing tokens into a block">
  
  <path d="M40 36a17 17 0 0 1 34 0v26l-5.7-4-5.6 4-5.7-4-5.6 4-5.7-4-5.7 4z" fill="#2da44e"></path>
  <path d="M44 22a14.5 14.5 0 0 1 26 0z" fill="#1a7f37"></path>
  <path d="M40 23h34" stroke="#1a7f37" stroke-width="3.2" stroke-linecap="round"></path>
  <circle cx="50" cy="35" r="2.6" fill="#fff"></circle>
  <circle cx="63" cy="35" r="2.6" fill="#fff"></circle>
  <path d="M52 43c2.2 1.8 6.6 1.8 8.8 0" stroke="#fff" stroke-width="2.4" stroke-linecap="round"></path>
  <circle class="m-squash" cx="92" cy="30" r="2.4" fill="#2da44e" opacity="0.4"></circle>
  <circle class="m-squash s2" cx="100" cy="36" r="2" fill="#2da44e" opacity="0.4"></circle>
  <circle class="m-squash s3" cx="90" cy="42" r="2.2" fill="#2da44e" opacity="0.4"></circle>
  <path class="m-press" d="M95 48v8m-3.5-3.5 3.5 3.5 3.5-3.5" stroke="#1a7f37" stroke-width="2.4" stroke-linecap="round" stroke-linejoin="round"></path>
  <rect x="90" y="60" width="10" height="8" rx="2" fill="#1a7f37"></rect>
</svg>