<svg xmlns="http://www.w3.org/2000/svg" viewBox="0 0 120 84" fill="none" role="img" aria-label="banish mascot — the banisher, casting tokens away">
  
  <path d="M36 38a17 17 0 0 1 34 0v26l-5.7-4-5.6 4-5.7-4-5.6 4-5.7-4-5.7 4z" fill="#2da44e"></path>
  <circle cx="46" cy="36" r="2.6" fill="#fff"></circle>
  <circle cx="59" cy="36" r="2.6" fill="#fff"></circle>
  <path d="M48 44c2.2 1.8 6.6 1.8 8.8 0" stroke="#fff" stroke-width="2.4" stroke-linecap="round"></path>
  <g class="m-wave">
    <path d="M66 40q8-2 12-10" stroke="#2da44e" stroke-width="3.2" stroke-linecap="round"></path>
    <circle cx="79" cy="29" r="2.8" fill="#fff" stroke="#2da44e" stroke-width="2"></circle>
  </g>
  <circle class="m-cast" cx="90" cy="22" r="2.4" fill="#2da44e" opacity="0.45"></circle>
  <circle class="m-cast c2" cx="100" cy="16" r="2.2" fill="#2da44e" opacity="0.28"></circle>
  <circle class="m-cast c3" cx="109" cy="11" r="2" fill="#2da44e" opacity="0.14"></circle>
  <path d="M85 28l4-3M95 21l4-3" stroke="#2da44e" stroke-width="2" stroke-linecap="round" opacity="0.3"></path>
</svg>